<svg width="325" height="142" viewBox="0 0 325 142" fill="none" xmlns="http://www.w3.org/2000/svg">
<path d="M8.89497 52.5004C8.66259 51.1339 7.02039 42.5168 7.40733 46.167C7.88812 50.7026 8.43838 55.225 8.47656 59.7906C8.52735 65.864 8.40628 60.6807 8.26737 57.6036C8.10888 54.0929 8.05817 50.5916 8.05817 47.0783C8.05817 40.4563 8.20258 60.3262 7.9652 66.9442C7.88902 69.0679 7.2675 75.4021 7.22138 73.2775C7.06326 65.9942 7.22138 58.6917 7.22138 51.4069C7.22138 49.0755 7.36179 42.087 7.19813 44.4128C6.47888 54.6348 5.98393 64.8741 5.31537 75.1001C5.02594 79.5272 3.55865 92.6132 4.98994 88.4047C5.85909 85.8491 5.81755 82.7288 5.89646 80.1121C6.14042 72.0223 5.85328 63.9104 5.54781 55.8266C5.29883 49.2377 4.78505 42.5461 5.757 35.9835C5.79503 35.7267 6.19497 33.2992 6.29162 35.5051C6.57543 41.9822 5.91452 48.5474 5.54781 55.0064C4.4066 75.1068 3.87424 135.51 3.87424 115.379C3.87424 105.43 4.30466 95.5432 5.10617 85.6253C5.50207 80.7265 6.34548 75.5209 5.94295 70.5892C4.58102 53.9033 6.18167 104.093 5.12942 120.801C4.9806 123.163 4.71101 128.319 4.71101 122.486C4.71101 111.668 4.58762 100.823 5.31537 90.0222C5.31971 89.9579 5.59255 85.0514 5.52457 86.6505C5.12594 96.0275 5.12942 105.403 5.12942 114.786C5.12942 118.431 5.12942 129.367 5.12942 125.722C5.12942 113.836 4.87301 101.926 5.19915 90.045C5.37533 83.6274 6.38438 77.3021 6.77975 70.9082C7.16725 64.6415 6.20282 83.4521 5.9662 89.7261C5.64025 98.3686 5.29846 107.053 4.29263 115.652C4.22991 116.188 3.92803 117.763 3.89748 117.224C3.6438 112.748 3.88471 108.192 3.851 103.714C3.70741 84.646 0.985914 63.9242 5.54781 45.1191C5.78116 44.1571 6.62702 40.4866 6.61704 40.5171C5.22594 44.7678 5.15765 49.1673 5.12942 53.5939C5.09987 58.2288 4.01871 64.5439 5.54781 69.0401C7.033 73.4071 7.18857 59.9474 7.38409 55.3481C7.78101 46.0118 5.9662 18.0047 5.9662 27.3491C5.9662 32.1027 5.938 36.8571 5.9662 41.6106C5.9796 43.8698 6.47228 48.7295 7.03543 43.1598C7.77652 35.8302 8.05817 28.492 8.05817 21.1297C8.05817 19.9451 8.25754 14.5892 7.9652 19.1476C7.32628 29.1102 3.95039 58.8789 5.17591 48.9692C5.87362 43.3274 6.27285 37.6558 6.36136 31.9739C6.41036 28.8279 7.14251 23.9201 5.87322 20.8791C4.37412 17.2874 5.12942 28.6173 5.12942 32.4979C5.12942 39.0845 6.01953 28.0717 6.1754 26.5746C6.2875 25.4979 6.3846 20.2871 6.3846 21.2892C6.3846 36.6891 4.47876 51.9838 4.29263 67.3087C4.18751 75.9631 2.61906 84.503 2.61906 93.1889C2.61906 100.842 0.207236 108.96 1.2709 116.518C1.62651 119.044 1.15004 121.571 1.68929 124.081C1.96884 125.383 1.45396 129.095 2.0147 125.562C2.73542 121.021 5.15545 113.046 3.03745 108.635C1.37378 105.17 2.20065 116.265 2.20065 120.094C2.20065 121.611 2.24167 121.655 2.17741 120.049C1.93444 113.976 1.78227 107.924 1.78227 101.846C1.78227 100.115 1.78227 94.9204 1.78227 96.6518C1.78227 101.25 1.77344 105.841 2.0147 110.435C2.32386 116.322 3.03745 133.986 3.03745 128.091C3.03745 126.133 3.18165 124.114 2.94447 122.168C2.6683 119.901 2.6198 125.33 2.6423 125.904C2.71151 127.667 2.11646 131.608 4.08343 132.465C5.6846 133.162 7.30358 133.685 8.89496 134.424C11.6891 135.721 15.2009 134.558 18.0996 135.837C19.4639 136.438 21.8517 136.566 23.3528 136.566C29.0485 136.566 20.5639 134.789 18.7505 134.196C17.3668 133.744 5.99248 131.388 5.43159 132.488C5.15132 133.037 18.6886 134.925 20.3311 134.925C22.076 134.925 17.0363 133.797 15.4033 133.194C11.8339 131.877 8.09967 130.256 4.24614 130.005C-3.21599 129.517 18.8682 133.092 26.1653 134.698C29.5666 135.446 27.332 134.437 25.375 133.65C21.2121 131.976 15.8074 130.344 11.3588 131.964C8.96456 132.835 14.8424 133.763 15.0314 133.786C21.8364 134.632 28.5946 134.401 35.4165 134.128C39.1245 133.98 35.8283 134.136 34.1613 134.083C30.352 133.96 26.6452 132.979 22.8414 132.875C20.5373 132.812 27.9 134.068 28.0946 134.105C30.6539 134.595 39.4635 137.354 41.9946 135.7C42.8983 135.109 39.8994 135.129 38.8334 134.925C36.6217 134.502 34.4004 134.177 32.1623 133.923C29.667 133.64 22.1428 133.325 24.6545 133.285C32.3513 133.163 38.357 130.653 34.6029 122.464C33.7071 120.509 32.8174 118.457 31.7439 116.586C31.5435 116.237 31.4882 120.578 31.4882 121.302C31.4882 121.649 31.4882 126.444 31.4882 124.263C31.4882 115.939 31.1094 107.4 32.511 99.1578C33.1604 95.3389 33.0673 98.511 32.9061 100.547C32.2512 108.82 30.951 116.984 30.0006 125.22C29.8224 126.765 29.6127 130.38 30.419 126.451C32.225 117.649 33.7502 108.761 34.5797 99.8185C34.6615 98.9369 35.2538 90.814 35.2538 96.6518C35.2538 108.677 35.1032 120.714 35.3467 132.738C35.3949 135.118 35.3009 137.781 35.6954 140.165C35.8808 141.286 36.392 140.293 36.6019 139.755C40.0512 130.919 40.0885 120.232 40.6464 110.936C40.9656 105.618 41.1113 100.313 41.1113 94.9887C41.1113 86.466 39.6196 111.973 39.1123 120.482C38.9299 123.54 37.0347 131.717 38.6939 134.789C39.4385 136.167 39.1452 131.698 39.2518 130.141C39.7724 122.533 40.1188 114.915 40.228 107.291C40.3164 101.118 40.2875 94.9422 40.2745 88.7692C40.2679 85.6424 41.0272 80.6623 39.9723 77.5605C39.3605 75.7615 38.6957 81.1591 38.3685 83.0282C37.485 88.0737 37.1106 93.192 36.7414 98.2921C36.1159 106.934 34.6713 116.509 35.9511 125.175C36.0764 126.023 36.5199 127.875 37.2528 127.407C39.4595 125.999 38.7887 116.715 38.8334 115.287C39.1936 103.773 38.5987 92.1986 39.5307 80.7044C39.6328 79.445 40.1815 75.7048 40.1815 76.9682C40.1815 81.7647 38.965 86.8837 38.3917 91.617C37.2769 100.822 36.7325 109.937 36.2997 119.183C36.0647 124.205 36.6476 123.651 36.9273 118.887C37.5161 108.861 36.9273 98.8026 36.9273 88.7692C36.9273 85.2833 37.8638 82.9316 36.0906 87.0834C33.2963 93.6257 41.7899 85.9468 43.5751 84.4862C44.0394 84.1064 48.7809 80.3181 49.2002 82.527C49.7809 85.5858 43.3561 85.6329 41.7621 85.3975C40.2194 85.1697 35.8287 84.246 35.5792 82.208C35.2785 79.7518 41.3615 79.0939 42.8778 78.8363C45.4358 78.4018 48.0913 78.2408 50.6878 78.3351C52.4011 78.3973 47.1209 78.1321 45.6671 77.2416C44.9892 76.8263 41.8561 73.2718 41.9016 73.2775C45.7714 73.7638 49.4843 74.09 53.4074 74.2571C55.8746 74.3623 53.607 75.1072 52.5706 75.2596C48.6877 75.8304 45.2033 75.7644 41.6691 74.0065C39.5265 72.9409 44.0547 74.1687 44.319 74.2344C46.9636 74.8921 52.5483 76.9222 55.1972 75.6241C59.6868 73.4239 35.5512 72.5925 40.5534 72.184C43.0108 71.9833 45.4257 71.7871 47.8986 71.7739C50.4672 71.7602 56.9242 72.9054 59.1022 71.1588C59.3527 70.9579 55.8896 69.4482 55.5924 69.2907C52.9598 67.896 53.5656 64.6605 53.849 62.1599C54.1484 59.5195 56.3145 54.2447 55.2437 51.7258C54.8253 50.7417 54.3272 53.6672 54.0117 54.6875C52.8869 58.3257 51.9367 62.0277 51.4549 65.805C51.1883 67.8951 50.2699 72.6321 51.4317 74.5989C52.1073 75.7426 54.0298 64.2032 54.0582 63.8914C54.4254 59.8648 54.9183 55.8194 54.9183 51.7714C54.9183 48.628 54.264 58.0257 53.9885 61.1575C53.6416 65.1018 52.9418 69.2544 53.2447 73.232C53.306 74.0377 53.6787 74.4168 54.3837 73.642C56.5471 71.2646 56.9409 67.1981 57.3357 64.2103C58.0362 58.9085 59.7455 46.9471 51.1062 50.9968C48.8055 52.0753 46.4771 53.2981 44.04 54.0496C40.9611 54.999 42.3951 53.8158 44.2957 52.956C46.9124 51.7724 50.1811 51.6267 52.989 51.1107C55.9114 50.5736 48.6347 51.2665 47.9915 51.2702C44.6446 51.2892 41.297 51.2702 37.9501 51.2702C35.6153 51.2702 35.0518 50.8485 37.6711 50.4728C39.9785 50.1419 42.5081 50.0471 44.5747 51.2474C46.5686 52.4055 44.1817 52.98 42.9243 52.7282C38.5251 51.8473 37.6686 46.905 39.8561 43.5699C40.4533 42.6594 40.1331 55.7467 40.2977 50.0172C40.4386 45.1143 40.9317 40.2268 41.088 35.3228C41.2068 31.5973 40.256 38.2573 40.1815 38.7401C39.6177 42.3958 39.2268 45.9941 38.9263 49.6754C38.6691 52.827 39.7377 44.4941 39.8561 43.7066C40.2514 41.0773 40.5791 38.4091 41.1113 35.8012C41.3481 34.6408 44.3036 35.5493 45.0628 35.5962C48.0401 35.7802 51.2175 35.5874 54.1745 35.1861C56.6998 34.8434 50.4071 33.9817 49.7348 33.8876C48.5247 33.7181 38.6218 33.4696 43.4822 34.9583C46.4156 35.8568 49.298 36.0734 52.3614 36.0974C56.9898 36.1337 50.4679 36.0839 49.3397 36.1202C47.861 36.1677 43.4938 36.1794 44.9233 36.553C47.6726 37.2716 50.4668 37.7928 53.2912 38.125C57.4529 38.6145 61.7602 38.7921 65.936 38.33C70.5343 37.8212 63.893 36.3651 62.7283 36.0974C60.9915 35.6983 55.6905 34.9752 57.4286 35.3684C61.0457 36.1865 64.771 36.4194 68.4696 36.4847C69.722 36.5068 75.2067 36.4939 75.0477 36.4847C71.5085 36.2807 67.9941 36.0974 64.4483 36.0974C63.9655 36.0974 61.91 35.9269 63.5651 36.1885C67.4523 36.803 71.1215 37.6233 75.0941 37.7149C85.5775 37.9567 74.1223 32.9383 72.7232 34.1382C71.2301 35.4187 76.7201 34.6138 78.6737 34.2749C82.5541 33.6017 83.4376 29.8631 83.9269 26.5062C84.214 24.5367 84.6892 20.5232 82.3463 19.421C80.4147 18.5123 80.2037 21.2959 80.1149 22.4282C79.8855 25.3508 80.2459 35.9489 82.7182 27.8503C84.096 23.337 84.9637 18.533 85.0426 13.8167C85.1239 8.95829 83.3845 16.2938 83.1831 17.234C82.3281 21.2245 81.4694 25.2294 80.7192 29.24C79.8701 33.7797 81.9433 26.4063 82.1604 25.5722C83.5026 20.413 83.7789 14.9968 84.2988 9.71593C84.4548 8.13164 84.7885 5.47663 83.1366 8.32623C81.89 10.4766 80.7603 12.7598 79.8592 15.0697C79.0276 17.2015 76.6964 14.4603 75.2801 13.7711C71.175 11.7737 66.6926 10.3531 62.1704 9.6248C60.1889 9.30567 58.1793 9.12944 56.1735 9.05526C56.1443 9.05418 53.5692 8.96544 53.6863 8.80465C54.7726 7.31411 61.2254 7.02609 62.8677 6.84541C65.7475 6.5286 74.3773 6.22183 71.561 6.89097C68.5586 7.60435 64.5325 6.74707 61.5661 6.4809C55.8418 5.96726 50.1198 4.88487 44.3887 4.54443C38.4897 4.19402 55.8304 7.80544 61.7288 8.16676C66.7126 8.47205 59.4763 7.09211 58.6373 6.93654C49.5916 5.25922 40.3333 4.27956 31.1163 4.61278C27.9398 4.72761 24.6414 5.11606 21.5398 5.843C19.9342 6.2193 30.4463 7.1138 30.7909 7.11879C39.5124 7.24512 65.498 3.91733 56.7778 4.11158C49.3064 4.27801 41.8506 5.05774 34.3705 5.25067C30.2565 5.35679 26.1543 5.41952 22.0511 5.75188C21.3008 5.81265 19.067 6.07739 19.8197 6.0936C23.7473 6.17821 27.6763 6.01386 31.6044 5.95691C36.6479 5.88379 41.6924 5.79377 46.7364 5.75187C47.1422 5.7485 48.0116 5.59085 48.3867 5.77465C49.3404 6.24202 46.268 6.03803 45.2022 6.07082C39.0782 6.25923 32.9047 6.03157 26.7929 5.66075C20.9222 5.30454 3.43137 3.29142 9.31335 3.29142C14.233 3.29142 19.1017 2.84837 23.9804 2.24346C27.3321 1.82788 30.6792 1.31314 34.0451 1.01323C34.8236 0.943862 36.9836 1.15036 36.323 1.56C28.5622 6.37226 15.2191 6.06557 6.50081 3.92932C4.03197 3.32438 14.298 2.43623 12.4745 2.47128C2.95758 2.65417 7.11199 20.8881 9.29011 25.6633C9.97857 27.1727 11.799 29.8243 13.567 30.4019C14.2481 30.6244 13.1278 29.062 12.8929 28.3971C11.2496 23.744 10.113 18.9177 8.94145 14.1356C8.59526 12.7226 7.63412 3.70282 5.87323 3.06361C4.68068 2.6307 5.59839 14.5239 5.71052 15.2519C6.82253 22.4726 9.20701 29.485 10.1037 36.7353C10.85 42.7706 9.88772 36.1924 9.40633 33.8648C8.35561 28.7843 7.40692 23.4039 5.36186 18.6009C4.99309 17.7348 3.30808 12.9474 3.75801 16.5733C4.46656 22.2832 5.28975 27.997 5.52457 33.7509C5.53429 33.9891 5.59595 34.6915 5.64078 34.4571C6.9559 27.5826 8.62547 20.7847 10.1501 13.9534" stroke="white" stroke-width="2" stroke-linecap="round" stroke-linejoin="round"/>
<path d="M90.0635 125.904C89.3758 125.904 85.1512 122.665 86.8093 124.355C89.1107 126.701 86.9194 124.827 85.6936 123.626C81.8597 119.868 84.4654 122.336 86.6931 124.446C90.7751 128.314 84.0134 120.996 83.2297 119.525C80.7061 114.789 85.2679 120.692 86.2282 121.963C89.172 125.858 84.1065 119.075 83.5087 118.067C82.3824 116.168 78.6233 110.773 80.208 112.326C81.6172 113.707 82.684 115.589 83.7876 117.201C87.1864 122.167 83.4185 117.896 81.8816 115.584C80.7112 113.823 79.3899 110.52 77.4652 109.41C76.0267 108.581 78.7527 112.43 79.3247 113.966C80.1458 116.172 79.2202 112.857 79.1155 112.44C78.3784 109.505 77.3464 106.46 75.6754 103.897C75.2256 103.207 74.1788 102.249 74.7921 103.692C74.8822 103.904 75.0013 99.9813 75.0013 99.386C75.0013 89.15 74.3762 101.826 75.0246 84.6688C75.0317 84.4803 75.5741 81.7125 75.3268 83.3019C75.1107 84.6899 74.1646 88.7612 74.1646 87.3571C74.1646 84.2836 75.1982 81.3059 75.6522 78.2899C75.7356 77.7355 76.0842 74.3666 75.7451 76.8774C75.558 78.263 75.3349 79.76 74.8154 81.0693C74.6431 81.5035 75.3128 77.4299 75.443 76.8319C76.0178 74.191 76.7212 71.5826 77.3257 68.9493C77.7379 67.1538 77.5776 68.5425 77.3257 69.3138C76.0374 73.26 79.1769 62.5692 79.5572 61.5907C79.8625 60.8051 81.6491 56.2866 81.6491 56.5559C81.6491 58.2072 81.1378 59.9161 80.8821 61.5452C80.1668 66.1019 83.9958 52.8321 85.9261 48.6278C87.1406 45.9826 84.4041 52.3399 85.9725 48.2405C87.0936 45.3104 88.7102 42.5049 90.4354 39.8796C92.6041 36.5794 90.6891 40.9662 90.0635 41.9755C89.6248 42.6833 87.5332 45.9165 88.1575 43.1146C88.8426 40.0398 90.4967 36.9493 92.2949 34.3663C94.3606 31.3992 89.3803 39.8388 91.6209 35.7333C93.0471 33.1198 94.6204 30.6157 96.5254 28.3063C98.7512 25.6081 96.0692 30.4153 95.7351 30.949C95.53 31.2766 92.7745 35.4577 93.5501 34.2752C95.1234 31.8765 97.3277 29.9008 99.5239 28.0557C101.328 26.5404 94.5346 34.5028 99.1984 29.4454C100.013 28.5625 102.791 25.0439 104.242 25.1624C104.511 25.1844 101.216 29.043 100.709 29.4454C99.6158 30.3145 102.718 28.6259 103.08 28.4886C106.118 27.3359 109.383 26.8548 112.471 25.8459C113.108 25.6376 115.921 24.4473 113.377 24.7296C110.611 25.0365 106.697 25.8003 104.359 27.4178C103.58 27.9565 106.27 27.4963 107.218 27.3951C110.377 27.0575 113.533 26.735 116.701 26.4838C119.967 26.2249 123.276 25.8459 126.557 25.8459C127.487 25.8459 124.697 25.8459 123.767 25.8459C122.817 25.8459 116.363 25.237 115.957 26.1648C115.835 26.444 116.579 26.1936 116.887 26.1648C118.71 25.9947 120.522 25.7842 122.35 25.6636C125.597 25.4494 129.723 24.8897 132.809 26.256C135.467 27.4323 128.344 25.698 127.394 25.3447C126.916 25.1672 130.018 26.0876 130.415 26.1648C133.555 26.7755 136.807 26.666 139.992 26.666C143.157 26.666 133.529 26.5783 130.578 25.4586C128.6 24.7082 131.03 25.5606 131.484 25.7092C135.518 27.0271 139.565 28.2957 143.757 29.0354C145.231 29.2953 149.718 29.5366 148.22 29.5366C146.026 29.5366 144.032 28.923 142.014 28.1241C141.029 27.7343 137.927 26.4086 140.852 27.7824C144.764 29.6196 148.569 31.6879 152.59 33.2956C159.302 35.979 153.338 33.707 150.591 31.997C148.282 30.5595 151.138 33.1736 151.614 33.6601C153.636 35.7284 155.648 37.2978 158.308 38.4899C160.138 39.3099 158.04 38.2353 157.564 37.8748C156.498 37.0664 153.681 34.3163 154.357 35.4599C156.19 38.5635 165.265 45.0126 162.678 42.4767C161.394 41.2183 159.997 39.9175 158.471 38.9455C156.996 38.0061 160.86 41.4896 162.213 42.5906C163.125 43.3329 164.978 45.0448 166.351 44.9372C166.758 44.9052 165.476 42.9924 165.56 43.1146C167.33 45.6654 172.739 53.0351 171.743 50.1087C170.541 46.5723 166.161 43.3843 171.232 48.3544C172.707 49.8 176.02 52.0612 173.417 48.5823C171.414 45.9061 177.144 55.6902 180.53 55.6902C181.355 55.6902 179.461 54.4567 178.949 53.8221C178.121 52.7961 178.386 52.5595 179.367 53.5032C180.242 54.344 186.257 59.1246 185.457 57.9229C185.274 57.648 187.484 62.233 188.572 63.2994C189.833 64.535 186.965 59.8597 186.991 59.9277C187.642 61.6278 191.312 65.6376 190.803 63.8917C190.184 61.7657 186.867 60.0531 189.897 63.5728C192.318 66.3847 194.116 65.6802 191.268 62.8893C189.951 61.5983 196.053 68.3952 195.22 66.7623C194.214 64.7912 191.73 63.7787 194.662 66.3522C195.709 67.271 196.881 68.0723 197.916 68.9949C198.247 69.29 197.798 68.5194 198.102 68.357C198.365 68.2162 205.945 75.144 206.865 75.7839C210.089 78.0267 204.867 72.2886 205.215 72.9362C206.38 75.1066 208.668 76.9101 208.887 76.6952" stroke="white" stroke-width="2" stroke-linecap="round" stroke-linejoin="round"/>
<path d="M205.54 74.6444C202.965 74.6444 215.488 85.5292 209.004 80.7272C207.326 79.4849 202.264 75.8268 206.656 79.4286C209.186 81.5037 211.496 83.8137 213.955 85.967C214.654 86.5794 216.336 88.4979 216.233 87.5845C215.915 84.7794 209.958 79.8066 208.19 77.6972C207.739 77.1585 205.689 74.9727 207.493 76.7403C210.234 79.4273 213.043 81.9744 215.977 84.4634C218.727 86.7957 221.478 89.1132 224.089 91.5941C225.209 92.6575 225.686 92.7452 224.322 91.2524C218.349 84.7177 211.045 79.2002 205.378 72.4118C202.889 69.4309 210.704 78.0798 213.49 80.7955C216.683 83.9072 219.995 86.7851 223.671 89.3387C224.891 90.1867 227.339 92.6413 228.878 92.9155C231.218 93.3325 225.427 89.7059 223.694 88.1085C219.56 84.2973 215.529 80.375 211.537 76.4214C207.224 72.1487 214.795 81.7777 215.35 82.4358C219.973 87.9216 224.86 93.7001 230.714 97.9503C232.04 98.9127 230.881 98.2255 230.272 97.563C227.845 94.9196 225.458 92.223 223.183 89.4526C221.867 87.8506 218.221 82.8538 219.208 84.6684C220.232 86.5505 222.423 88.3876 223.88 89.9083C229.074 95.329 235.919 102.11 243.242 104.694C246.982 106.013 238.021 98.7992 235.107 96.1505C232.843 94.0928 233.196 94.8422 235.13 96.5606C238.54 99.5895 242.433 102.018 246.264 104.489C247.789 105.472 249.257 106.741 250.866 107.587C250.991 107.653 248.398 104.392 247.845 103.828C247.465 103.441 245.279 100.661 244.637 100.661C243.074 100.661 246.882 102.796 248.077 103.782C249.915 105.299 251.851 106.735 253.865 108.02C255.25 108.904 258.927 111.685 258.305 110.184C256.851 106.677 253.503 106.946 258.769 108.863C259.703 109.203 271.488 110.798 271.368 110.549C270.911 109.604 264.338 106.485 267.091 106.721C271.269 107.08 275.957 107.347 280.108 106.607C280.53 106.532 275.245 105.784 278.085 105.992C279.006 106.06 287.056 104.006 287.058 104.01C287.2 104.359 285.88 104.927 286.244 104.808C287.278 104.47 288.305 103.735 289.196 103.145C290.036 102.587 293.056 99.9287 290.893 102.119C290.399 102.62 295.751 98.8869 296.285 97.4719C296.452 97.0299 294.712 97.6143 294.589 97.5174C294.446 97.4057 297.117 94.104 297.262 93.9179C298.439 92.3986 303.677 86.9663 298.935 90.5462C294.679 93.7595 299.113 89.0274 300.19 87.2428C302.116 84.0535 300.815 83.4921 298.098 85.6708C296.608 86.8659 301.178 81.5115 301.771 80.2943C303.065 77.6406 303.461 75.5916 300.609 78.2439C298.197 80.4868 303.58 72.2251 303.77 68.9717C303.826 68.0127 304.039 64.463 302.096 65.076C301.894 65.1398 299.743 66.4356 299.795 66.1012C300.172 63.7021 304.796 60.0124 302.561 57.3529C300.8 55.2563 298.455 60.7263 300.097 56.0771C300.927 53.7277 302.819 46.5414 298.842 45.6202C295.772 44.9089 294.967 48.2418 297.308 43.4331C299.207 39.5337 297.69 39.0851 294.101 38.9679C291.797 38.8926 293.97 35.1911 291.544 34.3204C289.914 33.7354 282.735 35.8834 282.595 33.9559C282.278 29.6102 283.543 28.3515 277.783 28.3515C276.382 28.3515 270.021 30.2985 271.461 28.3059C273.966 24.8387 270.172 27.2211 268.114 28.2831C266.847 28.9365 265.465 29.7579 264.046 30.0601C263.022 30.2784 263.994 29.2562 263.604 28.8983C262.131 27.545 251.676 33.8251 249.844 34.6849C248.848 35.1522 248.918 34.9727 249.658 34.3659C250.369 33.7829 252.731 32.419 251.843 32.6801C246.983 34.109 242.667 37.2582 237.943 39.059C236.634 39.5578 242.44 36.0404 241.057 36.2796C235.941 37.1646 224.088 47.854 227.762 44.2533C231.622 40.4705 225.045 47.6784 224.322 48.354C222.907 49.6754 219.203 53.9369 219.929 52.1586C220.342 51.1469 222.099 50.2402 222.834 49.402C223.285 48.8881 223.607 48.3559 222.741 49.0831C220.324 51.1135 218.207 53.4857 216.14 55.8493C211.049 61.6707 218.182 54.4969 215.21 57.6035C214.149 58.7132 207.469 66.6862 211.235 61.8409C212.802 59.825 206.452 64.3791 205.169 66.5796C205.004 66.8618 205.564 66.0576 205.773 65.805C206.681 64.7052 206.378 64.7823 205.308 65.4405C203.823 66.3537 202.266 66.2649 200.938 67.1719C199.172 68.3787 196.517 71.6128 200.938 67.6731" stroke="white" stroke-width="2" stroke-linecap="round" stroke-linejoin="round"/>
<path d="M180.437 53.321C180.336 53.4203 179.71 54.3253 180.111 54.369C180.209 54.3796 181.403 53.7889 181.181 54.05C180.564 54.7749 182.802 53.0315 183.598 52.5009C186.56 50.5269 182.251 53.1408 182.482 53.8222C182.495 53.8586 185.791 52.031 185.806 52.0224C187.942 50.8354 190.096 49.6802 192.268 48.5596C193.113 48.1235 187.653 51.8205 186.457 52.592C183.533 54.4774 190.895 49.3069 191.385 48.9697C192.682 48.0767 203.94 40.2019 197.498 43.9804C195.336 45.2483 193.203 46.5664 191.083 47.8989C190.891 48.0192 187.84 49.9649 190.106 48.5368C195.038 45.4292 199.868 42.166 204.471 38.6039C206.899 36.7252 199.302 41.3525 198.381 41.9756C193.854 45.0395 206.846 35.0848 211.073 31.6326C216.25 27.4036 209.084 33.4328 207.725 34.5487C207.419 34.8001 204.501 37.5201 203.913 37.3281C203.331 37.1378 204.791 36.4843 205.262 36.0979C208.221 33.6679 211.324 31.4131 214.466 29.2177C230.887 17.7461 208.93 32.6205 225.414 22.3603C228.575 20.3927 231.732 18.4234 234.967 16.5737C235.219 16.4299 236.949 15.3106 235.479 16.3459C232.909 18.156 225.187 23.4475 228.064 22.1553C233.404 19.7562 238.387 16.4527 243.638 13.8399C248.6 11.3704 242.459 14.6015 241.476 15.8219C240.567 16.9501 244.342 15.1638 245.706 14.6373C250.094 12.9444 254.395 11.0737 258.862 9.57968C261.407 8.7288 263.77 8.20089 260.118 9.44299C255.728 10.9355 269.173 7.40144 273.692 6.34465C274.697 6.10954 287.274 3.69464 281.13 6.00292C280.14 6.37501 273.911 9.27938 273.158 7.80269C273.071 7.63253 283.824 6.85797 284.849 6.80029C288.321 6.60508 294.974 5.52391 297.471 8.82787C299.555 11.5853 295.426 8.29707 297.448 8.21276C301.332 8.05077 306.229 9.69075 309.349 11.9034C309.843 12.254 312.113 15.1617 310.488 12.473C310.269 12.111 308.774 10.5856 308.907 10.1948C309.064 9.73252 313.387 11.4831 313.533 11.5389C317.226 12.9518 322.095 14.426 323.946 18.0546" stroke="white" stroke-width="2" stroke-linecap="round" stroke-linejoin="round"/>
<path d="M167.466 75.0547C167.35 75.0547 169.593 77.2041 169.884 77.5152C171.177 78.8985 175.269 82.683 173.556 81.8437C171.941 81.0521 170.926 79.2001 169.047 78.6543C165.299 77.5659 174.106 84.5326 177.043 87.0608C178.053 87.9304 182.399 90.753 182.366 90.7287C180.211 89.1447 178.067 87.4949 176.16 85.6255C172.958 82.4875 182.894 91.5727 186.48 94.2827C189.823 96.809 200.045 104.097 196.893 101.345C195.388 100.031 191.986 95.0842 193.081 96.7431C195.353 100.184 199.702 102.725 202.89 105.264C203.939 106.098 210.318 111.039 210.003 110.503C208.492 107.934 204.647 104.672 209.608 107.473C213.026 109.404 216.449 112.094 220.021 113.67C220.618 113.934 219.529 112.459 219.115 111.961C218.511 111.236 216.325 110.139 217.232 109.843C217.653 109.705 220.06 111.463 220.393 111.643C223.218 113.161 226.091 114.625 229.017 115.948C231.364 117.01 238.198 120.259 236.315 118.523C235.958 118.193 234.152 117.087 235.711 117.475C241.263 118.854 246.856 119.737 252.121 122.031C260.592 125.721 246.125 118.162 249.611 119.206C253.917 120.496 258.576 121.583 262.604 123.557C265.744 125.096 259.732 122.705 259.025 122.487C256.828 121.81 265.443 123.624 266.602 123.831C268.995 124.257 271.405 124.52 273.808 124.879C274.463 124.977 277.308 125.694 275.226 124.674C272.053 123.119 274.138 123.854 276.853 123.854C280.312 123.854 287.569 125.322 290.613 123.444C291.491 122.902 287.627 122.821 288.707 122.441C292.176 121.222 295.163 119.362 298.517 117.953C299.983 117.337 296.509 119.181 298.214 118.568C300.202 117.854 301.935 116.263 303.514 114.946C305.634 113.177 312.222 108.456 309.581 109.319C308.721 109.6 303.885 114.306 305.49 112.918C309.238 109.677 312.236 106.053 315.299 102.211C317.657 99.2527 311.183 104.343 310.51 104.876C306.196 108.295 312.202 102.82 313.184 101.505C315.963 97.78 317.053 93.1862 318.227 88.7922C319.096 85.5401 314.542 91.059 314.09 92.0045C313.399 93.4509 317.01 89.616 317.344 88.8606C319.664 83.6176 319.561 77.8066 321.435 72.4576C322.55 69.2762 320.86 72.3274 319.948 73.6422C319.651 74.0698 319.396 74.8228 319.855 73.8701C321.123 71.2354 321.249 68.4072 321.133 65.5319C320.96 61.2703 319.762 57.1 319.762 52.8423C319.762 50.6027 320.565 57.287 321.435 59.358C322.81 62.6305 322.086 56.6805 322.016 56.0546C321.475 51.2227 319.328 46.4439 318.925 41.702C318.822 40.497 320.002 45.5581 320.924 44.7547C322.841 43.084 318.259 34.6165 317.344 33.0904C317.042 32.5866 313.697 28.1276 315.159 30.9945C316.497 33.6176 313.997 28.3628 313.625 27.8278C313.344 27.4226 307.824 19.8973 307.512 20.2642C306.484 21.4735 311.739 24.9996 310.603 23.8865C308.049 21.3827 305.05 19.1417 302.096 17.1203C297.812 14.1889 301.485 16.3038 303.491 17.8721C307.094 20.6888 303.589 19.0714 301.445 17.9632C297.509 15.9285 293.714 13.6224 289.916 11.3564C288.738 10.6536 293.233 12.1198 293.914 12.4044C296.746 13.5874 286.281 11.3324 285.291 11.0603C284.075 10.7262 274.646 7.35327 280.107 9.53388C280.713 9.77575 286.507 12.2677 284.64 12.2677C279.995 12.2677 275.116 11.0487 270.507 10.4679C265.555 9.84381 269.286 9.78669 271.693 10.1718C272.294 10.268 258.896 12.6129 261.047 13.3157C264.01 14.2838 261.585 14.0371 259.048 15.0243C254.843 16.6608 250.519 18.0416 246.543 20.1047" stroke="white" stroke-width="2" stroke-linecap="round" stroke-linejoin="round"/>
<path d="M86.716 125.084C81.1876 125.084 90.346 132.164 91.4578 133.103C94.4749 135.651 88.5051 131.99 87.4366 131.486C83.1031 129.441 95.5923 136.605 100.081 138.298C103.002 139.398 95.6897 135.937 94.9444 135.518C93.1549 134.512 96.2539 135.924 96.4553 136.019C99.1309 137.28 101.755 138.507 104.591 139.391C108.735 140.683 101.608 137.315 103.638 137.979C105.219 138.495 112.173 141.171 111.401 140.667" stroke="white" stroke-width="2" stroke-linecap="round" stroke-linejoin="round"/>
<path d="M166.629 81.205C166.629 81.4498 161.726 75.9568 160.772 75.145C156.751 71.7243 166.69 79.205 165.328 78.1522C160.799 74.6524 156.327 71.0954 151.846 67.5358C148.591 64.9499 156.254 70.6399 157.332 71.272C158.742 72.0991 160.194 72.9036 161.702 73.5502C163.017 74.1142 159.261 72.0658 158.076 71.272C155.315 69.4238 152.607 67.4953 149.801 65.7132C149.589 65.579 142.677 61.413 145.338 63.7312C148.681 66.644 152.686 69.018 156.681 70.9759C161.542 73.3582 147.056 66.0234 142.293 63.4578C141.523 63.0432 132.955 59.6502 137.807 60.5417C139.387 60.8322 148.057 64.4983 143.432 62.2504C137.844 59.5348 132.258 56.8943 126.417 54.7323C125.129 54.2556 120.465 52.5592 124.558 53.8211C125.518 54.1172 131.021 56.8482 130.694 56.9194C126.422 57.8499 120.357 55.8801 116.12 55.188C112.672 54.6248 112.544 54.4738 116.004 53.9578C120.336 53.3115 117.166 54.1488 114.888 55.393C113.924 55.9194 107.311 60.1793 107.799 60.2228C110.482 60.4619 112.839 57.6032 108.473 59.2432C105.223 60.4637 101.12 64.1127 99.8723 67.3991C99.6854 67.8914 102.833 64.8511 103.266 63.435C103.826 61.6068 99.3235 68.7452 98.8496 69.814C98.2278 71.2166 95.4762 79.9094 95.9673 79.428C97.673 77.7562 98.9289 73.3078 97.5479 71.1809C96.9822 70.3095 94.8226 82.3258 94.7121 83.3692C94.6803 83.6705 94.3141 93.9262 95.0841 93.2794C97.5343 91.2209 95.3767 83.9841 94.4332 81.5695C91.5345 74.151 98.1267 112.821 99.175 104.944C99.6447 101.415 96.8889 96.1606 95.27 93.1427C94.5433 91.788 94.187 91.3318 94.5262 93.4161C95.2432 97.8217 96.135 102.357 98.0128 106.447C98.5105 107.531 103.423 114.446 103.336 112.986C103.268 111.864 100.409 102.41 99.5702 102.574C98.0387 102.875 105.723 113.678 106.45 114.353C106.933 114.8 113.768 119.738 113.354 118.317C112.56 115.592 110.23 112.851 108.38 110.708C106.069 108.032 113.86 115.282 116.98 116.995C118.919 118.061 124.556 121.175 121.629 116.699C119.358 113.227 119.895 114.395 123.442 115.97C125.64 116.946 130.582 118.98 132.786 116.881C133.91 115.811 131.173 114.549 131.159 114.603C130.499 117.061 135.844 118.222 137.342 117.747C139.236 117.147 140.988 113.763 139.666 115.059C137.665 117.02 142.763 114.877 143.06 114.694C145.085 113.45 146.863 111.882 148.731 110.434C149.408 109.91 150.974 108.935 149.057 110.229C147.726 111.128 142.872 114.063 142.967 113.988C148.044 109.975 165.075 100.719 158.959 102.939C153.395 104.959 148.729 110.198 143.943 113.51C143.694 113.682 142.997 114.153 143.106 113.874C143.421 113.071 144.259 112.575 144.873 111.961C147.949 108.883 150.995 105.781 154.031 102.666C155.836 100.814 162.155 94.6346 156.123 99.6128C151.182 103.691 138.276 117.927 142.641 113.259C148 107.53 153.568 101.003 157.169 94.054C159.444 89.6641 149.058 99.5406 148.267 100.478C146.959 102.029 139.625 112.229 145.338 105.809C146.354 104.667 157.832 88.1925 157.239 88.0395C154.104 87.2309 135.236 120.85 152.822 95.3298C155.003 92.1655 160.497 82.0559 158.308 85.2146C157.046 87.0361 156.004 89.0797 155.007 91.0468C154.822 91.4124 152.469 96.9841 153.241 96.6511C157.122 94.9772 161.074 87.7352 163.561 84.4172C165.441 81.9088 164.577 81.9468 163.305 84.44C161.435 88.1073 165.856 82.3177 166.374 81.6606C170.002 77.0581 167.514 80.3379 165.374 82.4352" stroke="white" stroke-width="2" stroke-linecap="round" stroke-linejoin="round"/>
<path d="M182.11 94.7383C180.145 97.628 178.373 100.629 176.439 103.532C174.934 105.79 178.006 100.935 178.298 101.345C179.107 102.478 173.098 109.481 172.255 110.458C170.101 112.953 174.721 104.734 175.323 103.919C178.993 98.9513 172.858 107.616 172.092 108.635C170.171 111.191 164.381 118.838 166.281 116.267C169.143 112.393 172.034 106.226 176.276 103.6C181.141 100.589 169.509 112.777 165.467 116.791C163.713 118.534 161.912 120.233 160.168 121.985C159.073 123.085 162.476 119.904 163.561 118.796C167.258 115.02 178.023 103.601 175.276 108.088C171.247 114.67 164.223 120.716 158.262 125.585C157.324 126.351 154.853 129.048 153.473 129.048C150.823 129.048 157.414 125.557 159.563 124.036C160.834 123.136 170.136 116.364 164.677 121.006C158.939 125.886 152.841 132.285 145.756 135.245C144.897 135.604 149.364 131.576 150.219 130.916C150.955 130.349 152.264 129.407 150.312 130.551C146.671 132.686 142.948 134.673 139.271 136.748C137.71 137.629 127.862 142.848 133.367 137.887C135.524 135.944 143.483 128.172 146.895 129.549C148.008 129.998 137.246 135.462 136.482 135.769C133.527 136.953 130.629 138.333 127.579 139.277C127.56 139.283 123.222 140.32 125.116 139.163C128.178 137.292 132.864 135.418 136.552 135.837C138.761 136.088 130.218 138.804 129.3 138.935C124.964 139.555 117.534 141.195 113.261 139.755C109.491 138.485 121.091 136.994 125.023 137.637C129.545 138.375 124.46 139.391 122.768 139.391C117.696 139.391 112.219 138.666 107.473 136.839C106.461 136.449 109.527 136.878 110.077 137.181C111.6 138.021 105.158 136.287 104.614 136.065C101.877 134.945 99.3077 133.531 96.7578 132.055C95.2452 131.179 91.1479 128.08 92.202 129.458C92.5547 129.919 98.355 134.576 98.2919 134.584C96.3032 134.828 90.307 128.555 88.8548 127.362C85.6459 124.726 84.0579 124.137 83.7876 120.163" stroke="white" stroke-width="2" stroke-linecap="round" stroke-linejoin="round"/>
<path d="M205.363 68.1094C205.363 68.6875 206.214 67.2744 206.516 66.9789C207.823 65.698 203.975 69.6234 202.887 71.0872C202.627 71.4367 199.839 74.1226 200.974 73.7342C204.224 72.6218 207.207 70.2366 210.061 68.4127C210.129 68.3687 215 64.9325 214.646 64.7455C213.364 64.0688 208.423 67.7588 207.472 68.3575C205.566 69.5587 203.419 70.8913 201.902 72.5762C200.213 74.4522 206.283 70.0025 208.401 68.6057C209.356 67.976 220.317 60.5596 216.362 61.2437C213.95 61.661 211.608 62.9196 209.414 63.9183C209.119 64.0522 202.4 67.7055 202.493 67.7785C203.581 68.6317 219.8 56.9092 222.017 55.3156C226.405 52.1619 212.856 61.0912 208.513 64.3043C206.314 65.9316 204.117 67.5596 201.874 69.1296C198.529 71.4714 208.564 64.4445 211.945 62.1536C217.408 58.4533 233.741 47.6909 227.531 49.994C223.25 51.5816 219.25 54.9268 215.715 57.6868C214.359 58.7455 212.674 60.1635 211.383 61.3265C210.445 62.171 207.51 63.8509 208.767 64.0562C210.111 64.2758 215.346 58.7127 216.081 58.0729C220.75 54.0049 225.198 49.7234 230.119 45.9408C232.449 44.1497 239.671 39.0774 237.236 40.7295C233.956 42.9554 230.629 45.0106 227.474 47.4297C223.579 50.4172 219.725 53.4993 216.053 56.7494C211.812 60.5023 219.117 54.8451 219.457 54.5711C228.465 47.3136 238.13 40.8302 247.139 33.6984C252.107 29.7656 235.679 39.2771 230.288 42.6321C230.239 42.6624 225.395 45.3711 225.561 45.9408C225.688 46.3755 226.4 45.5607 226.799 45.3342C229.489 43.8081 232.166 42.2947 234.929 40.895C241.987 37.3204 264.419 29.7416 256.619 31.2169C249.34 32.5937 229.125 41.7847 235.52 38.1101C243.322 33.6274 254.539 32.2904 263.315 30.693C272.715 28.9819 260.653 30.5759 257.745 31.1342C255.39 31.5861 253.019 32.113 250.627 32.3474C247.497 32.6542 256.774 31.0249 259.827 30.2794C264.491 29.1402 269.091 27.6472 273.808 26.7225C274.307 26.6248 276.971 26.1173 274.905 26.6398C273.059 27.1068 267.384 27.4118 267.45 27.4118C273.407 27.4118 279.551 27.877 285.483 27.4118C287.805 27.2298 280.287 25.1918 278.534 26.6949C278.48 26.7418 284.185 28.4086 284.583 28.5147C288.093 29.451 291.649 30.2753 295.132 31.2996C297.339 31.9484 287.1 29.9191 287.115 30.0037C287.323 31.2293 292.214 33.2733 293.163 33.8639C295.409 35.2616 297.611 36.7754 298.93 39.1027C300.751 42.3143 297.532 36.9677 296.961 36.373C292.806 32.0463 292.614 35.4085 295.02 39.1027C295.519 39.8687 300.517 47.702 298.48 43.8453C297.001 41.0454 291.632 33.3391 292.601 36.3454C294.19 41.2792 297.687 45.5073 299.437 50.4076C301.176 55.2794 299.308 47.2192 299.155 45.8305C298.605 40.8098 298.642 48.5454 298.874 49.8286C299.556 53.5966 301.068 64.9327 301.068 61.1059C301.068 57.4524 301.518 53.7858 301.518 50.1594C301.518 46.8199 301.068 56.8288 301.068 60.1684C301.068 62.3834 301.068 64.5984 301.068 66.8134C301.068 67.1495 301.068 62.7508 301.068 61.8779C301.068 60.7646 301.341 50.4633 301.547 56.1979C301.77 62.4269 300.612 68.8576 298.649 74.782C297.856 77.1753 299.254 71.8279 299.268 71.7766C299.835 69.6508 299.973 67.4864 300.449 65.3521C301.478 60.7428 298.785 74.6784 297.299 79.1661C296.663 81.0842 295.45 86.629 294.823 84.7082C294.225 82.8764 296.163 79.1148 296.736 77.429C298.686 71.696 298.695 75.4395 297.918 79.1385C297.169 82.7025 296.051 86.305 294.57 89.6438C293.482 92.0964 293.794 90.2181 294.429 88.8993C295.107 87.4933 300.931 78.5775 297.411 84.1843C295.061 87.9268 290.158 94.374 289.928 98.8807C289.741 102.548 294.494 92.7646 297.777 90.9948C299.831 89.8874 295.754 95.1495 294.542 97.116C292.801 99.9381 291.076 102.875 288.915 105.415C287.737 106.801 289.921 102.971 289.984 102.879C290.991 101.398 295.153 98.0297 293.529 98.8255C292.137 99.5078 281.132 107.119 281.601 108.366C281.649 108.493 289.021 106.471 287.706 107.373C282.67 110.828 274.466 110.083 268.688 111.013C261.74 112.131 274.207 110.296 276.031 110.296C280.149 110.296 269.104 111.798 267.563 111.73C264.238 111.582 260.936 111.108 257.66 110.544C257.079 110.444 251.684 109.349 255.157 109.303C256.763 109.282 265.969 111.379 261.627 111.288C253.764 111.125 245.086 107.534 238.249 103.899C231.563 100.345 243.68 103.873 245.648 104.892C246.941 105.561 249.117 106.43 249.952 107.704C250.208 108.095 243.811 105.746 243.622 105.664C235.065 101.92 226.861 97.508 218.022 94.4139" stroke="white" stroke-width="2" stroke-linecap="round" stroke-linejoin="round"/>
<path d="M180.55 95.4061C180.55 93.6718 182.868 96.1584 183.701 96.7296C189.656 100.816 195.12 106.29 201.255 109.965C201.302 109.993 194.761 104.376 193.069 102.41C191.986 101.152 190.645 99.8707 192.956 101.775C196.899 105.025 201.072 108.052 205.588 110.488C209.147 112.409 213.072 114.063 216.419 116.334C220.437 119.061 208.542 110.656 204.716 107.676C200.142 104.115 195.454 100.458 190.284 97.7498C184.942 94.9514 188.555 97.9171 191.437 99.8454C200.345 105.805 209.506 111.312 218.697 116.83C221.036 118.234 223.223 120.451 225.702 121.573C238.688 127.447 201.148 107.131 189.524 98.963C188.139 97.9896 186.435 96.3435 184.826 95.737C179.252 93.6357 194.482 102.649 199.567 105.718C210.221 112.148 242.534 130.673 231.132 125.626C224.874 122.856 219.002 115.85 213.802 111.619C207.736 106.683 201.664 102.113 194.56 98.7149C193.005 97.9711 191.33 97.0269 189.693 96.4539C187.661 95.7428 193.175 98.9527 194.954 100.149C208.023 108.935 221.394 118.518 235.633 125.405C237.034 126.083 244.343 130.114 246.154 129.1C247.446 128.377 244.002 127.074 242.807 126.205C236.801 121.839 230.693 117.589 224.492 113.494C218.295 109.401 212.49 105.905 205.137 104.45C197.783 102.995 217.604 112.667 224.155 116.251C232.723 120.939 241.49 124.998 250.374 129.045C253.515 130.476 256.823 131.98 251.218 129.1C241.825 124.274 232.04 117.922 221.735 115.203C213.945 113.148 219.491 116.52 223.592 118.181C233.603 122.235 243.795 125.804 253.919 129.569C258.739 131.362 266.623 132.972 270.629 136.462C271.949 137.612 267.312 135.271 265.678 134.615C260.576 132.564 255.484 130.412 250.233 128.742C246.951 127.698 236.927 125.842 239.965 127.446C241.573 128.294 245.703 128.154 247.167 128.273C253.847 128.815 260.518 129.372 267.169 130.203C274.698 131.144 284.292 131.568 291.138 135.276C300.393 140.29 270.112 129.857 259.658 131.416C253.676 132.308 264.417 132.552 264.806 132.547C271.943 132.459 279.21 132.029 286.13 130.203C290.36 129.087 285.481 130.193 284.189 130.506C278.195 131.959 271.936 132.96 266.044 134.753C259.867 136.631 278.53 131.303 284.47 128.797C284.678 128.709 296.894 123.12 291.588 126.37C288.174 128.461 284.469 130.145 281.094 132.271C275.682 135.681 292.64 126.678 298.199 123.503C300.501 122.188 307.524 118.536 305.007 119.395C300.729 120.853 296.474 123.496 293.219 126.563C288.394 131.111 297.181 127.077 298.593 126.233C303.571 123.256 310.2 118.29 312.574 112.86C314.093 109.388 305.568 115.022 305.148 115.341C304.294 115.989 297.226 122.773 299.296 122.069C305.983 119.795 312.471 114.134 318.116 110.047C320.753 108.139 322.705 106.106 317.92 108.421C312.594 110.997 308.016 114.929 303.516 118.678C298.902 122.522 306.548 117.127 307.314 116.334C313.059 110.381 320.273 102.55 321.942 94.2205C322.962 89.1309 316.651 96.8858 316.26 97.3638C315.334 98.4953 305.253 110.325 306.301 111.481C308.626 114.044 316.123 102.9 316.625 102.079C321.493 94.1273 322.57 85.2269 322.815 76.1327C322.954 70.9275 320.516 77.1567 319.748 78.8073C317.854 82.8782 315.764 87.2634 314.966 91.7114C314.12 96.4211 316.451 93.1147 317.441 90.6085C321.89 79.3531 323.292 42.6832 321.324 54.5983C320.016 62.5165 319.387 86.1241 322.336 78.6418C327.217 66.2597 319.804 52.6141 319.804 40.1501C319.804 35.4535 320.155 49.5467 320.705 54.2123C321.005 56.7636 322.686 64.2249 322.73 61.657C322.861 53.9782 317.932 45.1325 315.303 38.0546C314.699 36.429 312.377 30.61 312.828 35.959C313.052 38.6208 313.924 41.8055 316.147 43.5691C317.899 44.9593 313.49 36.6404 313.39 36.4554C310.345 30.813 307.914 24.3326 303.825 19.305C301.525 16.4764 304.064 21.4707 304.444 22.0623C306.494 25.2523 309.297 27.6196 312.574 29.5346C318.079 32.7509 308.137 26.4735 307.539 26.088C302.25 22.6776 297.007 19.2195 292.179 15.1967C288.888 12.4554 293.688 17.3818 294.232 17.8161C295.24 18.62 304.332 23.2282 304.332 24.0751C304.332 25.2467 302.047 23.3675 300.956 22.8895C297.191 21.2402 293.482 19.4684 289.731 17.7885C285.117 15.722 278.49 11.6949 273.189 11.6949C269.74 11.6949 279.641 14.1263 282.979 14.9761C291.501 17.1456 277.831 16.3024 275.974 16.2444C270.057 16.0597 264.057 15.7077 258.195 16.7132C254.295 17.382 261.255 15.828 261.683 15.7206C263.181 15.3447 271.516 13.5368 269.813 13.5975C263.101 13.8367 256.447 15.2446 249.811 16.1617C244.844 16.8484 248.123 15.8135 250.627 14.9209C254.041 13.7042 259.437 12.8113 262.218 10.4266C266.194 7.01696 252.21 13.7639 247.308 15.693C243.27 17.2818 239.34 19.0498 235.351 20.7388C231.344 22.436 237.296 18.6648 237.883 18.2573C238.831 17.5996 246.576 13.0989 246.436 11.8604C246.314 10.79 244.426 12.7438 243.482 13.2941C240.683 14.9252 238.021 16.7643 235.352 18.5881C233.199 20.0592 227.634 22.9174 227.193 25.8674C227.164 26.0604 238.791 19.2079 239.796 18.4227C240.131 18.1615 248.679 10.8657 243.622 12.3567C234.118 15.159 224.883 21.9773 216.334 26.8049C213.09 28.6366 209.891 30.5363 206.685 32.4297C205.657 33.0365 202.84 34.9864 203.45 33.9738C204.628 32.0159 207.743 30.0796 209.385 28.7074C212.878 25.7903 216.309 22.8198 219.71 19.8013C220.8 18.8339 232.061 9.84221 225.73 14.9485C218.252 20.9801 210.241 26.3994 203.337 33.0915C201.46 34.9115 197.678 39.3564 202.662 36.0142C206.653 33.338 210.267 30.1829 214.14 27.3563C218.319 24.3062 210.417 30.2058 209.695 30.8305C205.045 34.8518 200.574 39.3012 196.585 43.9552C193.023 48.1115 200.029 41.8221 200.861 41.1427C201.177 40.8857 207.598 35.4969 204.969 37.834C201.092 41.2797 197.266 44.8138 193.547 48.422C192.342 49.5908 189.635 52.1596 193.041 49.9109C196.891 47.3683 199.869 43.7766 202.887 40.3707C204.168 38.9251 195.943 46.1875 194.729 47.2639C190.41 51.0917 185.426 54.7557 181.9 59.3408C181.889 59.3561 180.83 60.7448 181.76 60.4713C183.286 60.0226 185.02 58.2208 186.12 57.3004C189.758 54.2557 195.308 50.7105 197.823 46.6022C199.788 43.393 191.579 50.927 188.652 53.3299C185.675 55.7736 181.641 58.5848 179.481 61.8224C177.372 64.9833 185.336 56.9068 188.146 54.3226C189.857 52.7483 195.498 49.5655 193.153 49.4697C191.251 49.3921 188.806 51.7587 187.245 52.613C181.876 55.5517 188.965 49.793 190.171 48.2565" stroke="white" stroke-width="2" stroke-linecap="round" stroke-linejoin="round"/>
<path d="M12.2363 6.08496H12.8181" stroke="white" stroke-width="2" stroke-linecap="round" stroke-linejoin="round"/>
<path d="M12.818 6.08558C12.818 6.85083 30.9025 6.66052 20.7042 9.0633C17.4062 9.84032 13.8258 10.4532 10.4262 9.95028C9.53529 9.81848 21.4 9.42103 22.9666 9.38009C34.7 9.07342 46.2879 8.04651 57.8729 6.21229C61.4838 5.64058 72.2789 4.09966 68.7973 5.19859C59.4719 8.14197 48.7315 8.24719 39.0623 8.68317C37.9074 8.73524 18.3695 7.82975 17.9246 9.7919C17.7254 10.6708 39.8007 9.57229 41.0339 9.47511C52.9217 8.53831 64.8271 7.40114 76.6512 5.86383C79.4977 5.49374 84.3595 4.80274 77.5885 5.00852C61.0525 5.51107 44.4316 6.48105 28.0086 8.4931C22.9742 9.10989 7.87362 10.6472 12.9473 10.6472C25.7327 10.6472 38.534 9.45093 51.2795 8.61981C57.5506 8.21087 76.3327 8.06653 70.0901 7.35269C58.8537 6.06784 46.3397 7.70547 35.0545 8.11296C27.6399 8.3807 19.4699 10.0158 12.0746 9.41176C6.03983 8.91886 23.9484 6.92841 29.9802 6.40235C45.8736 5.01623 93.7126 3.03927 77.7824 3.93147C55.2904 5.19118 32.5232 4.50556 10.103 6.21229C9.75514 6.23877 9.39445 6.24791 9.06877 6.37068C8.35137 6.64111 10.5949 6.59242 11.3635 6.59242C16.8682 6.59242 22.395 6.2521 27.8794 5.83215C42.5001 4.71262 56.9898 2.6514 71.6415 1.84072C73.8194 1.72022 76.1046 1.47505 78.2995 1.52394C78.7861 1.53478 77.483 2.09091 77.0067 2.18918C64.8545 4.69668 52.0304 4.68092 39.6764 5.48369C33.6119 5.87777 27.5865 6.08558 21.5122 6.08558C13.6344 6.08558 37.2643 5.74841 45.1386 5.51537C60.381 5.06427 106.012 1.98324 90.8399 3.48798C81.7296 4.39153 72.6522 5.55646 63.4967 5.95886C57.7181 6.21284 53.7024 6.22714 62.0099 6.0539C68.3629 5.92141 74.6703 5.18071 81.0145 4.97684C83.8957 4.88425 85.7454 4.94516 81.7901 4.94516C75.024 4.94516 76.4962 11.8093 76.9097 17.0778C77.2454 21.3553 78.5131 25.4103 79.3661 29.5906C79.8429 31.9273 77.8264 26.985 77.7501 26.4862C77.084 22.1341 77.8071 17.7642 77.944 13.4032C78.0813 9.03139 78.382 9.61139 78.6874 13.5616C79.1575 19.6438 80.0551 25.8056 78.8813 31.8714C78.5656 33.5029 75.4435 39.9498 76.6189 34.6591C78.0861 28.0549 80.6203 21.2598 83.083 14.9554C83.4209 14.0904 90.2214 3.57434 90.8076 4.72342C91.7148 6.50179 86.5344 15.9528 85.8626 17.9965C84.8517 21.0713 84.2872 26.7347 82.0487 29.2422C76.5054 35.4514 90.3249 11.6703 85.7333 4.7551C84.277 2.56194 83.063 3.42147 82.6305 5.45201C81.3982 11.2366 80.5499 17.0945 79.2691 22.8749C78.7401 25.2625 77.3167 32.4129 77.3945 29.9708C77.5795 24.1687 79.1708 18.0462 80.6266 12.4528C80.969 11.1375 84.2182 2.6443 84.2788 3.77308C84.5428 8.68838 83.4105 13.7312 82.0164 18.4083C81.0147 21.769 79.5308 25.2842 79.1722 28.7987C78.9511 30.9649 74.095 30.3892 72.4818 30.4776C66.704 30.7944 60.9155 30.533 55.158 30.0341C53.5885 29.8981 44.7402 29.4639 51.2149 29.4639C57.1711 29.4639 63.1148 29.5007 69.0558 29.0204C75.0687 28.5344 56.9795 29.7489 51.0532 30.8578C50.7841 30.9081 41.4527 32.5796 41.6156 33.1386C41.9678 34.3466 55.7784 32.917 57.0972 32.8535C61.097 32.6607 65.0805 32.351 69.0558 31.8714C70.4486 31.7034 74.0671 30.201 73.2252 31.3012C72.6367 32.0703 68.046 32.9288 67.6984 33.0119C61.3455 34.5299 54.8547 35.6726 48.3706 36.4964C47.8936 36.557 40.1646 36.8766 42.4236 36.8766C51.9716 36.8766 61.3959 36.6186 70.8658 35.2927C73.3892 34.9393 80.5497 32.7981 78.4288 34.1839C76.7209 35.2999 70.2984 35.4091 68.668 35.6094C61.5824 36.4802 54.4237 37.3858 47.2717 37.4468C42.2028 37.49 44.3718 37.4468 48.306 37.4468C57.1019 37.4468 65.8941 37.4884 74.6796 37.0033C87.7387 36.2822 48.4912 38.2971 35.4424 37.4151C24.368 36.6665 57.5996 35.7362 68.7003 35.7362C81.2434 35.7362 18.5683 37.4468 31.1114 37.4468C46.4817 37.4468 61.7535 35.166 77.136 35.166C89.2551 35.166 28.7027 36.0155 40.8076 36.5915C51.2945 37.0904 61.728 36.3831 72.1909 35.7678C76.9029 35.4907 79.2026 35.166 72.6757 35.166C61.3708 35.166 50.1018 34.5958 38.8037 34.5958C37.2016 34.5958 40.7513 34.5826 41.0662 34.5958C42.8665 34.6708 38.6794 37.3664 38.222 38.207C36.3294 41.6851 37.7653 45.5378 39.3855 48.7875C40.4437 50.9099 41.8195 54.3958 40.1289 50.1496C39.3527 48.2002 35.2781 39.0872 35.4747 41.8817C35.7337 45.5627 34.2089 49.0828 33.0183 52.4938C32.3388 54.4409 32.2144 46.0311 32.1457 44.7327C31.9448 40.9356 32.1404 36.7702 33.6324 33.2019C34.5784 30.9398 33.5939 36.826 33.5032 37.13C32.3585 40.963 26.2581 55.0437 30.3357 43.0538C31.4984 39.635 32.93 36.2524 33.7294 32.7268C34.3769 29.8709 33.2153 36.2651 33.083 36.6865C31.72 41.0282 28.634 44.799 27.3622 49.0726C27.1527 49.7767 31.6941 46.0017 32.2426 44.9861C34.4971 40.8124 35.507 31.2725 35.507 41.7867C35.507 46.7563 32.5211 60.7326 41.3894 59.558C43.4364 59.2869 46.5524 57.6555 48.0474 56.2635C48.2664 56.0596 43.1944 56.8608 42.6822 56.9604C41.9578 57.1013 35.0322 57.7872 37.7695 58.1008C44.1873 58.8361 51.2219 59.8316 57.6143 58.5126C63.2129 57.3574 56.738 56.7195 54.7701 56.5803C50.3244 56.2658 45.8755 56.2635 41.4217 56.2635C33.2412 56.2635 58.0607 57.6762 65.953 55.5666C66.6018 55.3932 64.4408 49.3527 65.1773 53.7292C65.9851 58.5287 65.6623 63.2372 64.7249 67.9843C64.2372 70.4537 64.5529 74.1602 63.626 69.9484C62.7773 66.0921 62.0027 62.4386 61.6544 58.5126C61.6073 57.9813 59.9077 64.7844 59.6505 65.9253C58.8195 69.6121 60.0992 75.4939 55.4812 74.9535C51.3117 74.4656 47.0679 74.3509 42.8761 74.6367C40.5011 74.7986 38.1089 75.0802 42.0358 75.0802C45.9361 75.0802 60.1158 75.0802 48.0797 75.0802C44.5245 75.0802 40.9692 75.0802 37.4139 75.0802C34.6524 75.0802 42.9062 74.5081 45.6557 74.2566C48.2641 74.018 56.115 73.7027 53.5096 73.9715C49.4091 74.3945 45.7222 75.3884 41.9065 76.7908" stroke="white" stroke-width="2" stroke-linecap="round" stroke-linejoin="round"/>
</svg>
